<svg width="341" height="128" viewBox="0 0 341 128" fill="none" xmlns="http://www.w3.org/2000/svg">
<g clip-path="url(#clip0_250_520)">
<path d="M335.233 0H5.76744C2.58217 0 0 2.59017 0 5.78531V122.215C0 125.41 2.58217 128 5.76744 128H335.233C338.418 128 341 125.41 341 122.215V5.78531C341 2.59017 338.418 0 335.233 0Z" fill="white"/>
<path d="M20.5177 36.8813L24.2089 26.757H26.2851L29.9763 36.8813H28.0154L27.2079 34.5383H23.2717L22.4498 36.8813H20.5177ZM23.7763 33.092H26.7033L25.2326 28.8831L23.7763 33.092ZM34.399 37.0549C33.7262 37.0549 33.1253 36.891 32.5967 36.5631C32.068 36.2353 31.6499 35.787 31.3423 35.2181C31.0346 34.6491 30.8809 34.0031 30.8809 33.28C30.8809 32.5568 31.0346 31.9156 31.3423 31.3564C31.6499 30.7875 32.068 30.3439 32.5967 30.0257C33.1253 29.6979 33.7262 29.534 34.399 29.534C34.9373 29.534 35.4083 29.6352 35.812 29.8377C36.2157 30.0402 36.5425 30.3246 36.7925 30.6911V26.4678H38.6381V36.8813H36.9943L36.7925 35.8544C36.5618 36.1726 36.2542 36.4523 35.8697 36.6933C35.4948 36.9343 35.0046 37.0549 34.399 37.0549ZM34.7883 35.435C35.3843 35.435 35.8697 35.2374 36.2446 34.842C36.6291 34.437 36.8213 33.9212 36.8213 33.2944C36.8213 32.6677 36.6291 32.1567 36.2446 31.7613C35.8697 31.3564 35.3843 31.1539 34.7883 31.1539C34.202 31.1539 33.7165 31.3515 33.332 31.7469C32.9475 32.1422 32.7553 32.6532 32.7553 33.28C32.7553 33.9067 32.9475 34.4226 33.332 34.8276C33.7165 35.2325 34.202 35.435 34.7883 35.435ZM43.6896 37.0549C43.0551 37.0549 42.4976 36.9537 42.017 36.7512C41.5364 36.5391 41.1519 36.2498 40.8635 35.8834C40.5751 35.5169 40.4021 35.0927 40.3444 34.6106H42.2044C42.2621 34.8902 42.4159 35.1313 42.6658 35.3338C42.9254 35.5266 43.257 35.623 43.6607 35.623C44.0644 35.623 44.3576 35.5411 44.5403 35.3772C44.7325 35.2132 44.8286 35.0252 44.8286 34.8131C44.8286 34.5045 44.694 34.2973 44.4249 34.1912C44.1557 34.0755 43.7808 33.9646 43.3003 33.8585C42.9926 33.791 42.6803 33.709 42.363 33.6126C42.0458 33.5162 41.7526 33.3957 41.4835 33.2511C41.224 33.0968 41.0124 32.9039 40.8491 32.6725C40.6857 32.4315 40.604 32.1374 40.604 31.7903C40.604 31.1539 40.8538 30.6187 41.3537 30.1848C41.8631 29.7509 42.5745 29.534 43.4877 29.534C44.3336 29.534 45.0064 29.7316 45.5063 30.127C46.0157 30.5223 46.3185 31.0671 46.4147 31.7613H44.67C44.5643 31.231 44.1654 30.9659 43.4733 30.9659C43.1272 30.9659 42.858 31.0333 42.6658 31.1683C42.4831 31.3034 42.3919 31.4721 42.3919 31.6746C42.3919 31.8867 42.5312 32.0554 42.81 32.1808C43.0887 32.3061 43.4589 32.4218 43.9203 32.5279C44.4201 32.6436 44.8766 32.7738 45.29 32.9184C45.7129 33.0534 46.0494 33.2607 46.2993 33.5403C46.5492 33.8103 46.6742 34.2008 46.6742 34.7118C46.6838 35.1554 46.5684 35.5556 46.3282 35.9123C46.0878 36.269 45.7418 36.5487 45.29 36.7512C44.8382 36.9537 44.3047 37.0549 43.6896 37.0549ZM55.6667 37.0549C54.9265 37.0549 54.2729 36.9296 53.7057 36.6789C53.1386 36.4185 52.6916 36.0521 52.3648 35.5796C52.038 35.0975 51.8697 34.5142 51.8601 33.8296H53.8067C53.8259 34.302 53.9941 34.7022 54.3113 35.03C54.6381 35.3482 55.0851 35.5073 55.6522 35.5073C56.1425 35.5073 56.5318 35.3916 56.8201 35.1602C57.1085 34.9192 57.2527 34.601 57.2527 34.2056C57.2527 33.791 57.1229 33.468 56.8634 33.2366C56.6135 33.0052 56.2771 32.8172 55.8541 32.6725C55.4311 32.5279 54.9794 32.3736 54.4987 32.2097C53.7201 31.9397 53.1241 31.5926 52.7108 31.1683C52.3071 30.7441 52.1053 30.18 52.1053 29.4761C52.0957 28.8783 52.235 28.3673 52.5234 27.943C52.8214 27.5091 53.2251 27.1765 53.7346 26.9451C54.244 26.704 54.8304 26.5835 55.4936 26.5835C56.1665 26.5835 56.7576 26.704 57.2671 26.9451C57.7862 27.1861 58.1899 27.5236 58.4783 27.9575C58.7762 28.3914 58.9349 28.9072 58.9541 29.5051H56.9788C56.9692 29.1483 56.8297 28.8349 56.5606 28.565C56.3011 28.2853 55.9358 28.1455 55.4648 28.1455C55.0611 28.1359 54.7199 28.2371 54.4411 28.4492C54.172 28.6517 54.0374 28.9506 54.0374 29.346C54.0374 29.6835 54.1431 29.9534 54.3546 30.1559C54.566 30.3488 54.8544 30.5126 55.2197 30.6477C55.585 30.7827 56.0031 30.9273 56.4741 31.0816C56.9739 31.2551 57.4306 31.4576 57.8439 31.689C58.2572 31.9204 58.5888 32.229 58.8387 32.6147C59.0887 32.9907 59.2136 33.4776 59.2136 34.0755C59.2136 34.6058 59.079 35.0975 58.8099 35.5507C58.5408 36.0039 58.1418 36.3703 57.6132 36.6499C57.0845 36.9199 56.4357 37.0549 55.6667 37.0549ZM64.1834 36.8813C63.4337 36.8813 62.8329 36.6982 62.3811 36.3317C61.9293 35.9653 61.7034 35.3145 61.7034 34.3792V31.2551H60.4779V29.7076H61.7034L61.9197 27.7839H63.549V29.7076H65.4811V31.2551H63.549V34.3937C63.549 34.7408 63.6211 34.9818 63.7653 35.1168C63.9191 35.2421 64.1786 35.3048 64.5439 35.3048H65.4379V36.8813H64.1834ZM69.7476 37.0549C69.1323 37.0549 68.6277 36.9585 68.2336 36.7656C67.8395 36.5631 67.5463 36.298 67.3541 35.9702C67.1618 35.6423 67.0657 35.2808 67.0657 34.8854C67.0657 34.2201 67.3253 33.6801 67.8443 33.2655C68.3634 32.8509 69.142 32.6436 70.1801 32.6436H71.9969V32.47C71.9969 31.9783 71.8575 31.6167 71.5787 31.3853C71.3 31.1539 70.9539 31.0382 70.5406 31.0382C70.1657 31.0382 69.8389 31.1298 69.5601 31.313C69.2814 31.4865 69.1083 31.7469 69.0411 32.094H67.2387C67.2868 31.5733 67.4598 31.1201 67.7578 30.7344C68.0654 30.3488 68.4595 30.0547 68.9401 29.8522C69.4207 29.6401 69.959 29.534 70.555 29.534C71.5739 29.534 72.3764 29.7895 72.9632 30.3005C73.5493 30.8116 73.8428 31.5348 73.8428 32.47V36.8813H72.2711L72.0981 35.7243C71.8863 36.1099 71.5883 36.4281 71.2039 36.6789C70.829 36.9296 70.3435 37.0549 69.7476 37.0549ZM70.1657 35.6086C70.6944 35.6086 71.1029 35.435 71.3913 35.0879C71.6893 34.7408 71.8767 34.3117 71.9536 33.8007H70.382C69.8918 33.8007 69.5409 33.8923 69.3294 34.0755C69.1179 34.249 69.0122 34.466 69.0122 34.7263C69.0122 35.006 69.1179 35.2229 69.3294 35.3772C69.5409 35.5314 69.8197 35.6086 70.1657 35.6086ZM78.908 36.8813C78.1582 36.8813 77.557 36.6982 77.1057 36.3317C76.6537 35.9653 76.428 35.3145 76.428 34.3792V31.2551H75.2024V29.7076H76.428L76.6443 27.7839H78.2736V29.7076H80.2057V31.2551H78.2736V34.3937C78.2736 34.7408 78.3457 34.9818 78.4899 35.1168C78.6434 35.2421 78.903 35.3048 79.2685 35.3048H80.1624V36.8813H78.908ZM84.6884 37.0549C83.7945 37.0549 83.1024 36.7752 82.6121 36.216C82.1313 35.6568 81.8912 34.8372 81.8912 33.7573V29.7076H83.7224V33.5837C83.7224 34.2008 83.8471 34.6733 84.0973 35.0011C84.3467 35.3289 84.7411 35.4929 85.2796 35.4929C85.7886 35.4929 86.2067 35.3097 86.534 34.9433C86.87 34.5768 87.0387 34.0658 87.0387 33.4101V29.7076H88.8842V36.8813H87.2549L87.1108 35.6664C86.8894 36.0907 86.5672 36.4281 86.1447 36.6789C85.7309 36.9296 85.2457 37.0549 84.6884 37.0549ZM93.9509 37.0549C93.3165 37.0549 92.7585 36.9537 92.2784 36.7512C91.7975 36.5391 91.4133 36.2498 91.1249 35.8834C90.8365 35.5169 90.6635 35.0927 90.6058 34.6106H92.4658C92.5235 34.8902 92.6771 35.1313 92.9272 35.3338C93.1868 35.5266 93.5184 35.623 93.9221 35.623C94.3258 35.623 94.6185 35.5411 94.8016 35.3772C94.9934 35.2132 95.09 35.0252 95.09 34.8131C95.09 34.5045 94.9552 34.2973 94.6863 34.1912C94.4167 34.0755 94.0418 33.9646 93.5616 33.8585C93.2538 33.791 92.9416 33.709 92.6244 33.6126C92.3072 33.5162 92.0138 33.3957 91.7449 33.2511C91.4854 33.0968 91.2734 32.9039 91.1105 32.6725C90.9468 32.4315 90.8654 32.1374 90.8654 31.7903C90.8654 31.1539 91.1148 30.6187 91.6151 30.1848C92.1241 29.7509 92.8357 29.534 93.7491 29.534C94.5947 29.534 95.2674 29.7316 95.7677 30.127C96.2767 30.5223 96.5795 31.0671 96.6761 31.7613H94.9314C94.8254 31.231 94.4268 30.9659 93.7347 30.9659C93.3886 30.9659 93.119 31.0333 92.9272 31.1683C92.7441 31.3034 92.6533 31.4721 92.6533 31.6746C92.6533 31.8867 92.7924 32.0554 93.0714 32.1808C93.3497 32.3061 93.7202 32.4218 94.1816 32.5279C94.6812 32.6436 95.1376 32.7738 95.5514 32.9184C95.9739 33.0534 96.3105 33.2607 96.5607 33.5403C96.8101 33.8103 96.9356 34.2008 96.9356 34.7118C96.945 35.1554 96.8296 35.5556 96.5895 35.9123C96.3488 36.269 96.0027 36.5487 95.5514 36.7512C95.0994 36.9537 94.5659 37.0549 93.9509 37.0549ZM102.262 37.0549C101.541 37.0549 100.901 36.9006 100.344 36.5921C99.7861 36.2835 99.3493 35.8496 99.0321 35.2904C98.7149 34.7312 98.5562 34.0851 98.5562 33.3523C98.5562 32.6098 98.7098 31.9494 99.0176 31.3708C99.3348 30.7923 99.7674 30.3439 100.315 30.0257C100.873 29.6979 101.526 29.534 102.276 29.534C102.978 29.534 103.598 29.6882 104.136 29.9968C104.674 30.3054 105.092 30.7296 105.391 31.2696C105.698 31.7999 105.852 32.3929 105.852 33.0486C105.852 33.1547 105.847 33.2655 105.838 33.3812C105.838 33.4969 105.833 33.6175 105.823 33.7428H100.387C100.426 34.302 100.618 34.7408 100.964 35.059C101.32 35.3772 101.747 35.5363 102.247 35.5363C102.622 35.5363 102.934 35.4543 103.185 35.2904C103.444 35.1168 103.636 34.895 103.761 34.6251H105.636C105.501 35.0783 105.275 35.4929 104.958 35.8689C104.65 36.2353 104.266 36.5246 103.805 36.7367C103.353 36.9488 102.839 37.0549 102.262 37.0549ZM102.276 31.0382C101.824 31.0382 101.426 31.1683 101.079 31.4287C100.733 31.6794 100.512 32.0651 100.416 32.5857H103.978C103.949 32.1133 103.776 31.7373 103.459 31.4576C103.141 31.178 102.747 31.0382 102.276 31.0382ZM110.576 37.0549C109.942 37.0549 109.384 36.9537 108.904 36.7512C108.423 36.5391 108.039 36.2498 107.75 35.8834C107.462 35.5169 107.289 35.0927 107.231 34.6106H109.091C109.149 34.8902 109.302 35.1313 109.553 35.3338C109.812 35.5266 110.144 35.623 110.547 35.623C110.951 35.623 111.244 35.5411 111.427 35.3772C111.619 35.2132 111.715 35.0252 111.715 34.8131C111.715 34.5045 111.581 34.2973 111.312 34.1912C111.042 34.0755 110.667 33.9646 110.187 33.8585C109.879 33.791 109.567 33.709 109.25 33.6126C108.933 33.5162 108.639 33.3957 108.37 33.2511C108.111 33.0968 107.899 32.9039 107.736 32.6725C107.572 32.4315 107.491 32.1374 107.491 31.7903C107.491 31.1539 107.74 30.6187 108.24 30.1848C108.749 29.7509 109.461 29.534 110.374 29.534C111.22 29.534 111.893 29.7316 112.393 30.127C112.902 30.5223 113.205 31.0671 113.301 31.7613H111.557C111.451 31.231 111.052 30.9659 110.36 30.9659C110.014 30.9659 109.744 31.0333 109.553 31.1683C109.369 31.3034 109.279 31.4721 109.279 31.6746C109.279 31.8867 109.418 32.0554 109.697 32.1808C109.975 32.3061 110.346 32.4218 110.807 32.5279C111.307 32.6436 111.763 32.7738 112.177 32.9184C112.599 33.0534 112.936 33.2607 113.186 33.5403C113.436 33.8103 113.561 34.2008 113.561 34.7118C113.57 35.1554 113.455 35.5556 113.215 35.9123C112.974 36.269 112.628 36.5487 112.177 36.7512C111.725 36.9537 111.191 37.0549 110.576 37.0549Z" fill="#005490"/>
<path d="M75.6977 54.9604H31C25.0276 54.9604 20.186 59.817 20.186 65.8079C20.186 71.7988 25.0276 76.6554 31 76.6554H75.6977C81.6701 76.6554 86.5116 71.7988 86.5116 65.8079C86.5116 59.817 81.6701 54.9604 75.6977 54.9604Z" fill="#9BE1F8"/>
<path d="M32.4419 72.3163C36.0253 72.3163 38.9302 69.4023 38.9302 65.8078C38.9302 62.2133 36.0253 59.2993 32.4419 59.2993C28.8584 59.2993 25.9535 62.2133 25.9535 65.8078C25.9535 69.4023 28.8584 72.3163 32.4419 72.3163Z" fill="white"/>
<path d="M45.0004 69.4238L47.6044 62.3368H48.5027L51.0966 69.4238H50.1983L49.5524 67.6014H46.5447L45.8886 69.4238H45.0004ZM46.797 66.9129H49.3001L48.0485 63.4099L46.797 66.9129ZM54.338 69.5453C53.8602 69.5453 53.4296 69.4373 53.0461 69.2213C52.6693 68.9986 52.3698 68.6914 52.1478 68.3C51.9325 67.9017 51.8248 67.4394 51.8248 66.9129C51.8248 66.3865 51.9325 65.9275 52.1478 65.536C52.3698 65.1378 52.6693 64.8307 53.0461 64.6147C53.4296 64.392 53.8602 64.2806 54.338 64.2806C54.9301 64.2806 55.428 64.4359 55.8318 64.7463C56.2422 65.0568 56.5012 65.4719 56.6089 65.9916H55.7409C55.6736 65.6812 55.5088 65.4415 55.2464 65.2728C54.9839 65.0973 54.6778 65.0096 54.3279 65.0096C54.0453 65.0096 53.7795 65.0805 53.5305 65.2222C53.2815 65.3639 53.0797 65.5765 52.925 65.86C52.7702 66.1435 52.6928 66.4945 52.6928 66.9129C52.6928 67.3314 52.7702 67.6824 52.925 67.9659C53.0797 68.2494 53.2815 68.4654 53.5305 68.6138C53.7795 68.7556 54.0453 68.8264 54.3279 68.8264C54.6778 68.8264 54.9839 68.742 55.2464 68.5733C55.5088 68.3978 55.6736 68.1515 55.7409 67.8343H56.6089C56.508 68.3405 56.2523 68.7522 55.8418 69.0694C55.4314 69.3867 54.9301 69.5453 54.338 69.5453ZM59.8494 69.4238C59.3919 69.4238 59.0319 69.3124 58.7695 69.0897C58.5071 68.8669 58.3758 68.4654 58.3758 67.8849V65.1209H57.5078V64.4021H58.3758L58.4869 63.1973H59.2237V64.4021H60.6972V65.1209H59.2237V67.8849C59.2237 68.2021 59.2876 68.4181 59.4154 68.5328C59.5433 68.6408 59.7687 68.6948 60.0917 68.6948H60.6165V69.4238H59.8494ZM62.5054 63.2884C62.3372 63.2884 62.1959 63.2344 62.0815 63.1265C61.9739 63.0117 61.92 62.87 61.92 62.7012C61.92 62.5393 61.9739 62.4042 62.0815 62.2963C62.1959 62.1883 62.3372 62.1343 62.5054 62.1343C62.6669 62.1343 62.8048 62.1883 62.9192 62.2963C63.0336 62.4042 63.0908 62.5393 63.0908 62.7012C63.0908 62.87 63.0336 63.0117 62.9192 63.1265C62.8048 63.2344 62.6669 63.2884 62.5054 63.2884ZM62.0815 69.4238V64.4021H62.9293V69.4238H62.0815ZM66.0651 69.4238L64.1676 64.4021H65.0558L66.5596 68.6037L68.0736 64.4021H68.9416L67.0441 69.4238H66.0651ZM72.0959 69.5453C71.6181 69.5453 71.1942 69.4373 70.8241 69.2213C70.4541 68.9986 70.1614 68.6914 69.9461 68.3C69.7375 67.9085 69.6332 67.4461 69.6332 66.9129C69.6332 66.3865 69.7375 65.9275 69.9461 65.536C70.1546 65.1378 70.444 64.8307 70.8141 64.6147C71.1909 64.392 71.6249 64.2806 72.1161 64.2806C72.6005 64.2806 73.0179 64.392 73.3676 64.6147C73.7244 64.8307 73.997 65.1175 74.1851 65.4753C74.3733 65.833 74.4677 66.2178 74.4677 66.6295C74.4677 66.7037 74.4641 66.7779 74.4576 66.8522C74.4576 66.9265 74.4576 67.0108 74.4576 67.1053H70.4709C70.4911 67.49 70.5785 67.8106 70.7333 68.0671C70.8948 68.3168 71.0933 68.5059 71.3288 68.6341C71.571 68.7623 71.8267 68.8264 72.0959 68.8264C72.4455 68.8264 72.7382 68.7454 72.974 68.5835C73.2097 68.4215 73.3813 68.2021 73.4887 67.9254H74.3264C74.1916 68.3911 73.9328 68.7792 73.5493 69.0897C73.1722 69.3934 72.6877 69.5453 72.0959 69.5453ZM72.0959 64.9995C71.6921 64.9995 71.3322 65.1243 71.0159 65.3741C70.7064 65.617 70.5281 65.9748 70.481 66.4472H73.63C73.6098 65.995 73.4548 65.6407 73.1657 65.3842C72.8766 65.1277 72.5198 64.9995 72.0959 64.9995Z" fill="#0FB2E3"/>
<path d="M187.442 54.9604H113.907C107.935 54.9604 103.093 59.817 103.093 65.8079C103.093 71.7988 107.935 76.6554 113.907 76.6554H187.442C193.414 76.6554 198.256 71.7988 198.256 65.8079C198.256 59.817 193.414 54.9604 187.442 54.9604Z" fill="#9BE1F8"/>
<path d="M115.349 72.3163C118.932 72.3163 121.837 69.4023 121.837 65.8078C121.837 62.2133 118.932 59.2993 115.349 59.2993C111.765 59.2993 108.86 62.2133 108.86 65.8078C108.86 69.4023 111.765 72.3163 115.349 72.3163Z" fill="white"/>
<path d="M128.352 69.4238V62.3368H129.199L132.964 68.0165V62.3368H133.812V69.4238H132.964L129.199 63.744V69.4238H128.352ZM137.727 69.5453C137.249 69.5453 136.825 69.4373 136.455 69.2213C136.085 68.9986 135.792 68.6914 135.577 68.3C135.368 67.9085 135.264 67.4461 135.264 66.9129C135.264 66.3865 135.368 65.9275 135.577 65.536C135.786 65.1378 136.075 64.8307 136.445 64.6147C136.822 64.392 137.256 64.2806 137.747 64.2806C138.231 64.2806 138.649 64.392 138.998 64.6147C139.355 64.8307 139.628 65.1175 139.816 65.4753C140.005 65.833 140.098 66.2178 140.098 66.6295C140.098 66.7037 140.096 66.7779 140.088 66.8522C140.088 66.9265 140.088 67.0108 140.088 67.1053H136.102C136.122 67.49 136.21 67.8106 136.364 68.0671C136.525 68.3168 136.724 68.5059 136.959 68.6341C137.202 68.7623 137.458 68.8264 137.727 68.8264C138.077 68.8264 138.37 68.7454 138.605 68.5835C138.84 68.4215 139.012 68.2021 139.119 67.9254H139.957C139.823 68.3911 139.563 68.7792 139.18 69.0897C138.804 69.3934 138.319 69.5453 137.727 69.5453ZM137.727 64.9995C137.323 64.9995 136.963 65.1243 136.647 65.3741C136.337 65.617 136.159 65.9748 136.112 66.4472H139.261C139.24 65.995 139.086 65.6407 138.796 65.3842C138.507 65.1277 138.15 64.9995 137.727 64.9995ZM143.689 69.5453C143.211 69.5453 142.787 69.4373 142.418 69.2213C142.048 68.9986 141.755 68.6914 141.54 68.3C141.331 67.9085 141.227 67.4461 141.227 66.9129C141.227 66.3865 141.331 65.9275 141.54 65.536C141.748 65.1378 142.038 64.8307 142.408 64.6147C142.785 64.392 143.219 64.2806 143.71 64.2806C144.194 64.2806 144.611 64.392 144.961 64.6147C145.318 64.8307 145.59 65.1175 145.779 65.4753C145.967 65.833 146.061 66.2178 146.061 66.6295C146.061 66.7037 146.058 66.7779 146.051 66.8522C146.051 66.9265 146.051 67.0108 146.051 67.1053H142.064C142.085 67.49 142.172 67.8106 142.327 68.0671C142.488 68.3168 142.687 68.5059 142.922 68.6341C143.165 68.7623 143.42 68.8264 143.689 68.8264C144.039 68.8264 144.332 68.7454 144.567 68.5835C144.803 68.4215 144.975 68.2021 145.082 67.9254H145.92C145.785 68.3911 145.526 68.7792 145.143 69.0897C144.766 69.3934 144.281 69.5453 143.689 69.5453ZM143.689 64.9995C143.286 64.9995 142.926 65.1243 142.609 65.3741C142.3 65.617 142.121 65.9748 142.074 66.4472H145.223C145.203 65.995 145.048 65.6407 144.759 65.3842C144.47 65.1277 144.113 64.9995 143.689 64.9995ZM149.672 69.5453C149.174 69.5453 148.737 69.4305 148.36 69.201C147.99 68.9716 147.701 68.6577 147.492 68.2595C147.29 67.8612 147.189 67.409 147.189 66.9028C147.189 66.3966 147.293 65.9477 147.502 65.5563C147.711 65.158 148 64.8476 148.37 64.6249C148.74 64.3954 149.178 64.2806 149.682 64.2806C150.093 64.2806 150.456 64.365 150.772 64.5337C151.088 64.7025 151.334 64.9387 151.509 65.2424V62.1343H152.357V69.4238H151.59L151.509 68.5936C151.348 68.8366 151.116 69.0559 150.813 69.2517C150.51 69.4474 150.129 69.5453 149.672 69.5453ZM149.763 68.8062C150.099 68.8062 150.395 68.7286 150.651 68.5733C150.914 68.4113 151.116 68.1886 151.257 67.9051C151.405 67.6217 151.479 67.2909 151.479 66.9129C151.479 66.535 151.405 66.2042 151.257 65.9208C151.116 65.6373 150.914 65.418 150.651 65.2627C150.395 65.1007 150.099 65.0197 149.763 65.0197C149.433 65.0197 149.137 65.1007 148.875 65.2627C148.619 65.418 148.417 65.6373 148.269 65.9208C148.128 66.2042 148.057 66.535 148.057 66.9129C148.057 67.2909 148.128 67.6217 148.269 67.9051C148.417 68.1886 148.619 68.4113 148.875 68.5733C149.137 68.7286 149.433 68.8062 149.763 68.8062ZM158.508 69.5453C158.091 69.5453 157.745 69.4744 157.468 69.3327C157.192 69.1909 156.988 69.002 156.853 68.7657C156.718 68.5294 156.651 68.273 156.651 67.9962C156.651 67.4833 156.846 67.0885 157.236 66.8117C157.626 66.535 158.158 66.3966 158.831 66.3966H160.184V66.3359C160.184 65.8971 160.069 65.5664 159.84 65.3437C159.612 65.1142 159.305 64.9995 158.922 64.9995C158.592 64.9995 158.306 65.0839 158.064 65.2526C157.828 65.4146 157.68 65.6541 157.62 65.9714H156.752C156.786 65.6069 156.907 65.2998 157.115 65.0501C157.331 64.8004 157.596 64.6113 157.913 64.4831C158.229 64.3481 158.565 64.2806 158.922 64.2806C159.622 64.2806 160.147 64.4696 160.496 64.8476C160.853 65.2188 161.031 65.7149 161.031 66.3359V69.4238H160.274L160.224 68.5227C160.083 68.8062 159.874 69.0492 159.598 69.2517C159.329 69.4474 158.966 69.5453 158.508 69.5453ZM158.639 68.8264C158.962 68.8264 159.238 68.742 159.467 68.5733C159.703 68.4046 159.881 68.1852 160.002 67.9153C160.123 67.6453 160.184 67.3618 160.184 67.0648V67.0547H158.902C158.404 67.0547 158.05 67.1424 157.842 67.3179C157.64 67.4866 157.539 67.6992 157.539 67.9558C157.539 68.219 157.634 68.4316 157.822 68.5936C158.017 68.7488 158.29 68.8264 158.639 68.8264ZM164.821 69.5453C164.343 69.5453 163.912 69.4373 163.529 69.2213C163.152 68.9986 162.852 68.6914 162.63 68.3C162.415 67.9017 162.307 67.4394 162.307 66.9129C162.307 66.3865 162.415 65.9275 162.63 65.536C162.852 65.1378 163.152 64.8307 163.529 64.6147C163.912 64.392 164.343 64.2806 164.821 64.2806C165.412 64.2806 165.911 64.4359 166.314 64.7463C166.725 65.0568 166.984 65.4719 167.091 65.9916H166.223C166.156 65.6812 165.991 65.4415 165.729 65.2728C165.466 65.0973 165.16 65.0096 164.81 65.0096C164.528 65.0096 164.262 65.0805 164.013 65.2222C163.764 65.3639 163.563 65.5765 163.408 65.86C163.253 66.1435 163.175 66.4945 163.175 66.9129C163.175 67.3314 163.253 67.6824 163.408 67.9659C163.563 68.2494 163.764 68.4654 164.013 68.6138C164.262 68.7556 164.528 68.8264 164.81 68.8264C165.16 68.8264 165.466 68.742 165.729 68.5733C165.991 68.3978 166.156 68.1515 166.223 67.8343H167.091C166.991 68.3405 166.735 68.7522 166.324 69.0694C165.914 69.3867 165.412 69.5453 164.821 69.5453ZM170.332 69.4238C169.874 69.4238 169.515 69.3124 169.252 69.0897C168.99 68.8669 168.858 68.4654 168.858 67.8849V65.1209H167.99V64.4021H168.858L168.969 63.1973H169.706V64.4021H171.18V65.1209H169.706V67.8849C169.706 68.2021 169.77 68.4181 169.898 68.5328C170.026 68.6408 170.251 68.6948 170.574 68.6948H171.099V69.4238H170.332ZM172.988 63.2884C172.82 63.2884 172.679 63.2344 172.564 63.1265C172.457 63.0117 172.403 62.87 172.403 62.7012C172.403 62.5393 172.457 62.4042 172.564 62.2963C172.679 62.1883 172.82 62.1343 172.988 62.1343C173.149 62.1343 173.287 62.1883 173.402 62.2963C173.516 62.4042 173.573 62.5393 173.573 62.7012C173.573 62.87 173.516 63.0117 173.402 63.1265C173.287 63.2344 173.149 63.2884 172.988 63.2884ZM172.564 69.4238V64.4021H173.412V69.4238H172.564ZM177.386 69.5453C176.914 69.5453 176.49 69.4373 176.114 69.2213C175.737 69.0053 175.438 68.7015 175.216 68.3101C175 67.9119 174.893 67.4461 174.893 66.9129C174.893 66.3798 175.004 65.9174 175.226 65.5259C175.448 65.1277 175.747 64.8206 176.124 64.6046C176.508 64.3886 176.934 64.2806 177.406 64.2806C177.877 64.2806 178.3 64.3886 178.678 64.6046C179.054 64.8206 179.35 65.1277 179.566 65.5259C179.788 65.9174 179.899 66.3798 179.899 66.9129C179.899 67.4461 179.788 67.9119 179.566 68.3101C179.344 68.7015 179.041 69.0053 178.657 69.2213C178.28 69.4373 177.856 69.5453 177.386 69.5453ZM177.386 68.8163C177.675 68.8163 177.944 68.7454 178.193 68.6037C178.442 68.462 178.644 68.2494 178.799 67.9659C178.953 67.6824 179.031 67.3314 179.031 66.9129C179.031 66.4945 178.953 66.1435 178.799 65.86C178.65 65.5765 178.452 65.3639 178.203 65.2222C177.954 65.0805 177.688 65.0096 177.406 65.0096C177.116 65.0096 176.847 65.0805 176.598 65.2222C176.349 65.3639 176.147 65.5765 175.993 65.86C175.838 66.1435 175.761 66.4945 175.761 66.9129C175.761 67.3314 175.838 67.6824 175.993 67.9659C176.147 68.2494 176.346 68.462 176.588 68.6037C176.837 68.7454 177.103 68.8163 177.386 68.8163ZM181.294 69.4238V64.4021H182.061L182.111 65.3032C182.273 64.9859 182.505 64.7362 182.808 64.554C183.111 64.3717 183.454 64.2806 183.837 64.2806C184.429 64.2806 184.901 64.4629 185.25 64.8273C185.607 65.1851 185.785 65.7385 185.785 66.4877V69.4238H184.937V66.5788C184.937 65.5326 184.507 65.0096 183.645 65.0096C183.215 65.0096 182.855 65.1682 182.566 65.4854C182.283 65.7959 182.142 66.2413 182.142 66.8218V69.4238H181.294Z" fill="#0FB2E3"/>
<path d="M278.279 54.9604H217.721C211.749 54.9604 206.907 59.817 206.907 65.8079C206.907 71.7988 211.749 76.6554 217.721 76.6554H278.279C284.251 76.6554 289.093 71.7988 289.093 65.8079C289.093 59.817 284.251 54.9604 278.279 54.9604Z" fill="#9BE1F8"/>
<path d="M219.163 72.3163C222.746 72.3163 225.651 69.4023 225.651 65.8078C225.651 62.2133 222.746 59.2993 219.163 59.2993C215.579 59.2993 212.674 62.2133 212.674 65.8078C212.674 69.4023 215.579 72.3163 219.163 72.3163Z" fill="white"/>
<path d="M231.721 69.4238L234.325 62.3368H235.224L237.818 69.4238H236.919L236.273 67.6014H233.266L232.61 69.4238H231.721ZM233.518 66.9129H236.021L234.77 63.4099L233.518 66.9129ZM239.034 69.4238V62.1343H239.882V69.4238H239.034ZM241.487 69.4238V62.1343H242.335V69.4238H241.487ZM246.222 69.5453C245.751 69.5453 245.328 69.4373 244.95 69.2213C244.573 69.0053 244.274 68.7015 244.052 68.3101C243.837 67.9119 243.729 67.4461 243.729 66.9129C243.729 66.3798 243.84 65.9174 244.062 65.5259C244.284 65.1277 244.584 64.8206 244.961 64.6046C245.344 64.3886 245.772 64.2806 246.242 64.2806C246.713 64.2806 247.137 64.3886 247.514 64.6046C247.891 64.8206 248.187 65.1277 248.402 65.5259C248.624 65.9174 248.735 66.3798 248.735 66.9129C248.735 67.4461 248.624 67.9119 248.402 68.3101C248.18 68.7015 247.877 69.0053 247.494 69.2213C247.117 69.4373 246.693 69.5453 246.222 69.5453ZM246.222 68.8163C246.511 68.8163 246.781 68.7454 247.03 68.6037C247.278 68.462 247.48 68.2494 247.635 67.9659C247.79 67.6824 247.867 67.3314 247.867 66.9129C247.867 66.4945 247.79 66.1435 247.635 65.86C247.487 65.5765 247.288 65.3639 247.04 65.2222C246.791 65.0805 246.525 65.0096 246.242 65.0096C245.953 65.0096 245.684 65.0805 245.435 65.2222C245.186 65.3639 244.984 65.5765 244.829 65.86C244.674 66.1435 244.597 66.4945 244.597 66.9129C244.597 67.3314 244.674 67.6824 244.829 67.9659C244.984 68.2494 245.183 68.462 245.425 68.6037C245.674 68.7454 245.94 68.8163 246.222 68.8163ZM252.432 69.5453C251.954 69.5453 251.523 69.4373 251.14 69.2213C250.763 68.9986 250.463 68.6914 250.241 68.3C250.026 67.9017 249.918 67.4394 249.918 66.9129C249.918 66.3865 250.026 65.9275 250.241 65.536C250.463 65.1378 250.763 64.8307 251.14 64.6147C251.523 64.392 251.954 64.2806 252.432 64.2806C253.023 64.2806 253.522 64.4359 253.925 64.7463C254.336 65.0568 254.595 65.4719 254.703 65.9916H253.835C253.767 65.6812 253.602 65.4415 253.34 65.2728C253.078 65.0973 252.771 65.0096 252.421 65.0096C252.139 65.0096 251.873 65.0805 251.624 65.2222C251.375 65.3639 251.174 65.5765 251.019 65.86C250.864 66.1435 250.786 66.4945 250.786 66.9129C250.786 67.3314 250.864 67.6824 251.019 67.9659C251.174 68.2494 251.375 68.4654 251.624 68.6138C251.873 68.7556 252.139 68.8264 252.421 68.8264C252.771 68.8264 253.078 68.742 253.34 68.5733C253.602 68.3978 253.767 68.1515 253.835 67.8343H254.703C254.602 68.3405 254.346 68.7522 253.935 69.0694C253.525 69.3867 253.023 69.5453 252.432 69.5453ZM257.768 69.5453C257.351 69.5453 257.004 69.4744 256.728 69.3327C256.453 69.1909 256.247 69.002 256.113 68.7657C255.979 68.5294 255.911 68.273 255.911 67.9962C255.911 67.4833 256.106 67.0885 256.496 66.8117C256.887 66.535 257.418 66.3966 258.091 66.3966H259.443V66.3359C259.443 65.8971 259.329 65.5664 259.1 65.3437C258.872 65.1142 258.565 64.9995 258.182 64.9995C257.852 64.9995 257.566 65.0839 257.324 65.2526C257.089 65.4146 256.94 65.6541 256.88 65.9714H256.012C256.046 65.6069 256.167 65.2998 256.375 65.0501C256.591 64.8004 256.857 64.6113 257.172 64.4831C257.489 64.3481 257.826 64.2806 258.182 64.2806C258.882 64.2806 259.407 64.4696 259.756 64.8476C260.113 65.2188 260.291 65.7149 260.291 66.3359V69.4238H259.534L259.484 68.5227C259.342 68.8062 259.134 69.0492 258.858 69.2517C258.589 69.4474 258.226 69.5453 257.768 69.5453ZM257.899 68.8264C258.222 68.8264 258.498 68.742 258.727 68.5733C258.962 68.4046 259.141 68.1852 259.262 67.9153C259.383 67.6453 259.443 67.3618 259.443 67.0648V67.0547H258.162C257.664 67.0547 257.311 67.1424 257.102 67.3179C256.9 67.4866 256.799 67.6992 256.799 67.9558C256.799 68.219 256.893 68.4316 257.082 68.5936C257.277 68.7488 257.549 68.8264 257.899 68.8264ZM263.62 69.4238C263.163 69.4238 262.802 69.3124 262.54 69.0897C262.277 68.8669 262.146 68.4654 262.146 67.8849V65.1209H261.278V64.4021H262.146L262.257 63.1973H262.994V64.4021H264.468V65.1209H262.994V67.8849C262.994 68.2021 263.058 68.4181 263.186 68.5328C263.314 68.6408 263.539 68.6948 263.862 68.6948H264.387V69.4238H263.62ZM267.874 69.5453C267.396 69.5453 266.972 69.4373 266.602 69.2213C266.232 68.9986 265.94 68.6914 265.724 68.3C265.516 67.9085 265.411 67.4461 265.411 66.9129C265.411 66.3865 265.516 65.9275 265.724 65.536C265.932 65.1378 266.222 64.8307 266.592 64.6147C266.969 64.392 267.403 64.2806 267.894 64.2806C268.379 64.2806 268.796 64.392 269.146 64.6147C269.502 64.8307 269.775 65.1175 269.963 65.4753C270.151 65.833 270.246 66.2178 270.246 66.6295C270.246 66.7037 270.242 66.7779 270.236 66.8522C270.236 66.9265 270.236 67.0108 270.236 67.1053H266.249C266.269 67.49 266.356 67.8106 266.511 68.0671C266.673 68.3168 266.871 68.5059 267.107 68.6341C267.349 68.7623 267.605 68.8264 267.874 68.8264C268.224 68.8264 268.516 68.7454 268.752 68.5835C268.988 68.4215 269.159 68.2021 269.267 67.9254H270.104C269.97 68.3911 269.711 68.7792 269.327 69.0897C268.95 69.3934 268.466 69.5453 267.874 69.5453ZM267.874 64.9995C267.47 64.9995 267.11 65.1243 266.794 65.3741C266.485 65.617 266.306 65.9748 266.259 66.4472H269.408C269.388 65.995 269.233 65.6407 268.944 65.3842C268.655 65.1277 268.298 64.9995 267.874 64.9995ZM273.857 69.5453C273.359 69.5453 272.921 69.4305 272.545 69.201C272.174 68.9716 271.885 68.6577 271.677 68.2595C271.475 67.8612 271.374 67.409 271.374 66.9028C271.374 66.3966 271.478 65.9477 271.687 65.5563C271.895 65.158 272.184 64.8476 272.555 64.6249C272.925 64.3954 273.362 64.2806 273.867 64.2806C274.277 64.2806 274.641 64.365 274.957 64.5337C275.273 64.7025 275.519 64.9387 275.694 65.2424V62.1343H276.542V69.4238H275.775L275.694 68.5936C275.532 68.8366 275.3 69.0559 274.997 69.2517C274.695 69.4474 274.314 69.5453 273.857 69.5453ZM273.948 68.8062C274.284 68.8062 274.58 68.7286 274.836 68.5733C275.098 68.4113 275.3 68.1886 275.442 67.9051C275.589 67.6217 275.664 67.2909 275.664 66.9129C275.664 66.535 275.589 66.2042 275.442 65.9208C275.3 65.6373 275.098 65.418 274.836 65.2627C274.58 65.1007 274.284 65.0197 273.948 65.0197C273.618 65.0197 273.322 65.1007 273.06 65.2627C272.804 65.418 272.602 65.6373 272.454 65.9208C272.313 66.2042 272.242 66.535 272.242 66.9129C272.242 67.2909 272.313 67.6217 272.454 67.9051C272.602 68.1886 272.804 68.4113 273.06 68.5733C273.322 68.7286 273.618 68.8062 273.948 68.8062Z" fill="#0FB2E3"/>
<path d="M83.6279 86.0564H31C25.0276 86.0564 20.186 90.913 20.186 96.9039C20.186 102.895 25.0276 107.751 31 107.751H83.6279C89.6003 107.751 94.4418 102.895 94.4418 96.9039C94.4418 90.913 89.6003 86.0564 83.6279 86.0564Z" fill="#9BE1F8"/>
<path d="M32.4419 103.412C36.0253 103.412 38.9302 100.499 38.9302 96.904C38.9302 93.3094 36.0253 90.3955 32.4419 90.3955C28.8584 90.3955 25.9535 93.3094 25.9535 96.904C25.9535 100.499 28.8584 103.412 32.4419 103.412Z" fill="white"/>
<path d="M45.4446 100.52V93.4327H46.2924V100.52H45.4446ZM47.9562 100.52V95.4981H48.7233L48.7738 96.3991C48.9353 96.0817 49.1674 95.8322 49.4702 95.6499C49.773 95.4677 50.1161 95.3766 50.4997 95.3766C51.0918 95.3766 51.5628 95.5588 51.9127 95.9233C52.2693 96.2813 52.4476 96.8345 52.4476 97.5837V100.52H51.5998V97.6748C51.5998 96.6284 51.1692 96.1055 50.3079 96.1055C49.8773 96.1055 49.5173 96.2639 49.2279 96.5814C48.9453 96.8916 48.804 97.3371 48.804 97.9178V100.52H47.9562ZM55.6137 100.641C55.1966 100.641 54.8501 100.57 54.5742 100.429C54.2983 100.287 54.0931 100.098 53.9585 99.8616C53.8239 99.6252 53.7566 99.3692 53.7566 99.0922C53.7566 98.5795 53.9518 98.1846 54.342 97.9077C54.7323 97.6307 55.2639 97.4926 55.9367 97.4926H57.2892V97.4318C57.2892 96.9928 57.1748 96.6624 56.946 96.4396C56.7173 96.2104 56.4111 96.0954 56.0275 96.0954C55.6979 96.0954 55.4119 96.18 55.1696 96.3485C54.9342 96.5105 54.7861 96.7499 54.7255 97.0673H53.8575C53.8912 96.7029 54.0123 96.3955 54.2209 96.146C54.4362 95.8965 54.702 95.7071 55.0182 95.5791C55.3345 95.4438 55.671 95.3766 56.0275 95.3766C56.7274 95.3766 57.2522 95.5653 57.6021 95.9435C57.9587 96.3145 58.137 96.8106 58.137 97.4318V100.52H57.38L57.3295 99.6187C57.1882 99.9021 56.9797 100.145 56.7038 100.348C56.4347 100.544 56.0713 100.641 55.6137 100.641ZM55.7449 99.9224C56.0679 99.9224 56.3438 99.8378 56.5726 99.6693C56.8081 99.5008 56.9864 99.2809 57.1075 99.0112C57.2286 98.7415 57.2892 98.458 57.2892 98.1608V98.1506H56.0074C55.5095 98.1506 55.1562 98.2381 54.9476 98.4139C54.7457 98.5824 54.6448 98.795 54.6448 99.0517C54.6448 99.3149 54.739 99.5275 54.9274 99.6895C55.1226 99.845 55.3951 99.9224 55.7449 99.9224ZM61.9263 100.641C61.4487 100.641 61.018 100.533 60.6344 100.317C60.2577 100.095 59.9582 99.7872 59.7362 99.3959C59.5209 98.9975 59.4132 98.5354 59.4132 98.0089C59.4132 97.4824 59.5209 97.0232 59.7362 96.632C59.9582 96.2335 60.2577 95.9269 60.6344 95.7107C61.018 95.4879 61.4487 95.3766 61.9263 95.3766C62.5185 95.3766 63.0164 95.5321 63.4201 95.8423C63.8306 96.1525 64.0896 96.5676 64.1973 97.0876H63.3293C63.262 96.7773 63.0971 96.5373 62.8347 96.3688C62.5723 96.193 62.2662 96.1055 61.9162 96.1055C61.6336 96.1055 61.3679 96.1764 61.1189 96.3181C60.87 96.4599 60.6681 96.6725 60.5133 96.956C60.3586 97.2395 60.2812 97.5902 60.2812 98.0089C60.2812 98.4276 60.3586 98.7783 60.5133 99.0618C60.6681 99.3453 60.87 99.5615 61.1189 99.7098C61.3679 99.8515 61.6336 99.9224 61.9162 99.9224C62.2662 99.9224 62.5723 99.8378 62.8347 99.6693C63.0971 99.4936 63.262 99.2477 63.3293 98.9302H64.1973C64.0963 99.4364 63.8407 99.8479 63.4302 100.165C63.0198 100.483 62.5185 100.641 61.9263 100.641ZM67.4379 100.52C66.9803 100.52 66.6203 100.408 66.3579 100.186C66.0955 99.9629 65.9643 99.5615 65.9643 98.9808V96.2169H65.0963V95.4981H65.9643L66.0753 94.2933H66.8121V95.4981H68.2857V96.2169H66.8121V98.9808C66.8121 99.2983 66.876 99.5138 67.0039 99.6288C67.1317 99.7365 67.3571 99.7908 67.6801 99.7908H68.2049V100.52H67.4379ZM70.0938 94.3844C69.9256 94.3844 69.7843 94.3302 69.6699 94.2224C69.5622 94.1074 69.5084 93.9657 69.5084 93.7972C69.5084 93.6352 69.5622 93.5 69.6699 93.3922C69.7843 93.2845 69.9256 93.2302 70.0938 93.2302C70.2553 93.2302 70.3932 93.2845 70.5077 93.3922C70.622 93.5 70.6792 93.6352 70.6792 93.7972C70.6792 93.9657 70.622 94.1074 70.5077 94.2224C70.3932 94.3302 70.2553 94.3844 70.0938 94.3844ZM69.6699 100.52V95.4981H70.5177V100.52H69.6699ZM73.6531 100.52L71.756 95.4981H72.6438L74.1477 99.6997L75.6616 95.4981H76.5296L74.6322 100.52H73.6531ZM79.6844 100.641C79.2065 100.641 78.7826 100.533 78.4127 100.317C78.0422 100.095 77.7495 99.7872 77.5346 99.3959C77.3256 99.0047 77.2217 98.5419 77.2217 98.0089C77.2217 97.4824 77.3256 97.0232 77.5346 96.632C77.743 96.2335 78.0321 95.9269 78.4026 95.7107C78.7789 95.4879 79.213 95.3766 79.7046 95.3766C80.1891 95.3766 80.6058 95.4879 80.9562 95.7107C81.3123 95.9269 81.5848 96.2133 81.7737 96.5712C81.9619 96.9292 82.0563 97.3139 82.0563 97.7254C82.0563 97.7999 82.0527 97.8737 82.0462 97.9481C82.0462 98.0226 82.0462 98.1065 82.0462 98.2013H78.0595C78.0797 98.586 78.1669 98.9063 78.3219 99.1631C78.4834 99.4126 78.6816 99.602 78.9174 99.73C79.1596 99.858 79.4148 99.9224 79.6844 99.9224C80.0341 99.9224 80.3268 99.8414 80.5625 99.6794C80.7976 99.5174 80.9691 99.2983 81.0773 99.0213H81.915C81.7802 99.487 81.5214 99.8754 81.1378 100.186C80.7608 100.489 80.2763 100.641 79.6844 100.641ZM79.6844 96.0954C79.2807 96.0954 78.9203 96.2205 78.6045 96.47C78.2945 96.713 78.1164 97.071 78.0696 97.5432H81.2186C81.1984 97.0912 81.0434 96.7369 80.7543 96.4801C80.4645 96.2234 80.1083 96.0954 79.6844 96.0954Z" fill="#0FB2E3"/>
<path d="M183.116 86.0564H113.907C107.935 86.0564 103.093 90.913 103.093 96.9039C103.093 102.895 107.935 107.751 113.907 107.751H183.116C189.089 107.751 193.93 102.895 193.93 96.9039C193.93 90.913 189.089 86.0564 183.116 86.0564Z" fill="#9BE1F8"/>
<path d="M115.349 103.412C118.932 103.412 121.837 100.499 121.837 96.904C121.837 93.3094 118.932 90.3955 115.349 90.3955C111.765 90.3955 108.86 93.3094 108.86 96.904C108.86 100.499 111.765 103.412 115.349 103.412Z" fill="white"/>
<path d="M130.602 100.641C130.084 100.641 129.633 100.546 129.25 100.358C128.866 100.169 128.57 99.9058 128.362 99.568C128.153 99.2303 128.049 98.8391 128.049 98.3936H128.937C128.937 98.6706 129.001 98.9266 129.129 99.1631C129.256 99.3923 129.442 99.5782 129.684 99.7199C129.933 99.8551 130.239 99.9224 130.602 99.9224C131.08 99.9224 131.45 99.8074 131.712 99.5782C131.975 99.3489 132.106 99.0618 132.106 98.7176C132.106 98.4341 132.046 98.2078 131.924 98.0393C131.803 97.8635 131.638 97.7218 131.43 97.614C131.228 97.5063 130.992 97.4116 130.723 97.3306C130.461 97.2496 130.185 97.1585 129.896 97.0572C129.351 96.8685 128.947 96.6356 128.685 96.3586C128.422 96.0752 128.291 95.7071 128.291 95.2551C128.284 94.8769 128.372 94.5428 128.553 94.2528C128.735 93.9556 128.991 93.7263 129.32 93.5643C129.657 93.3958 130.054 93.3112 130.511 93.3112C130.962 93.3112 131.353 93.3958 131.682 93.5643C132.019 93.7328 132.278 93.9657 132.459 94.2629C132.648 94.5601 132.746 94.8971 132.752 95.2753H131.864C131.864 95.0794 131.813 94.887 131.712 94.6982C131.612 94.5023 131.457 94.3439 131.248 94.2224C131.046 94.1009 130.79 94.0402 130.481 94.0402C130.098 94.0337 129.781 94.1313 129.532 94.3338C129.29 94.5363 129.169 94.8161 129.169 95.1741C129.169 95.4778 129.253 95.7107 129.421 95.8727C129.597 96.0347 129.839 96.1699 130.148 96.2776C130.457 96.3789 130.814 96.4968 131.218 96.632C131.555 96.7535 131.857 96.8952 132.126 97.0572C132.395 97.2192 132.604 97.4282 132.752 97.6849C132.907 97.9416 132.984 98.2685 132.984 98.667C132.984 99.0047 132.897 99.3251 132.722 99.6288C132.547 99.926 132.281 100.169 131.924 100.358C131.575 100.546 131.134 100.641 130.602 100.641ZM136.179 100.641C135.587 100.641 135.116 100.463 134.766 100.105C134.416 99.7401 134.241 99.1833 134.241 98.4341V95.4981H135.089V98.343C135.089 99.3894 135.516 99.9123 136.371 99.9123C136.808 99.9123 137.168 99.7568 137.451 99.4465C137.74 99.1291 137.885 98.6807 137.885 98.1V95.4981H138.733V100.52H137.966L137.905 99.6187C137.75 99.9361 137.518 100.186 137.209 100.368C136.906 100.55 136.563 100.641 136.179 100.641ZM142.262 100.641C141.663 100.641 141.165 100.489 140.768 100.186C140.372 99.8819 140.139 99.4704 140.072 98.9505H140.94C140.994 99.2137 141.131 99.4429 141.353 99.6389C141.583 99.8276 141.888 99.9224 142.272 99.9224C142.629 99.9224 142.891 99.8479 143.059 99.6996C143.228 99.5442 143.312 99.3619 143.312 99.1529C143.312 98.8492 143.2 98.6467 142.978 98.5455C142.764 98.4442 142.457 98.3531 142.06 98.2721C141.791 98.2179 141.522 98.1405 141.253 98.0393C140.984 97.938 140.758 97.7963 140.576 97.614C140.395 97.4253 140.304 97.1787 140.304 96.875C140.304 96.436 140.465 96.0788 140.788 95.8018C141.118 95.5183 141.563 95.3766 142.121 95.3766C142.653 95.3766 143.087 95.5118 143.423 95.7815C143.766 96.0448 143.965 96.423 144.018 96.9155H143.18C143.147 96.6588 143.036 96.4599 142.847 96.3181C142.666 96.1699 142.42 96.0954 142.11 96.0954C141.808 96.0954 141.573 96.1598 141.404 96.2878C141.242 96.4158 141.162 96.585 141.162 96.794C141.162 96.9965 141.266 97.1548 141.475 97.2698C141.69 97.3848 141.979 97.4824 142.343 97.5634C142.653 97.6307 142.945 97.7153 143.221 97.8165C143.503 97.9113 143.733 98.0559 143.907 98.2519C144.089 98.4406 144.18 98.7176 144.18 99.0821C144.187 99.534 144.015 99.9086 143.665 100.206C143.322 100.496 142.854 100.641 142.262 100.641ZM145.607 102.747V95.4981H146.374L146.455 96.3283C146.616 96.0853 146.846 95.8662 147.141 95.6702C147.444 95.4742 147.827 95.3766 148.292 95.3766C148.79 95.3766 149.224 95.4916 149.594 95.7208C149.964 95.95 150.25 96.2639 150.452 96.6624C150.661 97.0608 150.764 97.5128 150.764 98.019C150.764 98.5252 150.661 98.9772 150.452 99.3757C150.25 99.7669 149.961 100.078 149.584 100.307C149.214 100.53 148.78 100.641 148.282 100.641C147.871 100.641 147.504 100.557 147.181 100.388C146.866 100.22 146.623 99.9831 146.455 99.6794V102.747H145.607ZM148.191 99.9021C148.527 99.9021 148.824 99.8248 149.079 99.6693C149.335 99.5073 149.537 99.2845 149.685 99.0011C149.833 98.7176 149.907 98.3871 149.907 98.0089C149.907 97.6307 149.833 97.3002 149.685 97.0167C149.537 96.7332 149.335 96.5141 149.079 96.3586C148.824 96.1966 148.527 96.1157 148.191 96.1157C147.855 96.1157 147.559 96.1966 147.303 96.3586C147.047 96.5141 146.846 96.7332 146.697 97.0167C146.549 97.3002 146.475 97.6307 146.475 98.0089C146.475 98.3871 146.549 98.7176 146.697 99.0011C146.846 99.2845 147.047 99.5073 147.303 99.6693C147.559 99.8248 147.855 99.9021 148.191 99.9021ZM154.412 100.641C153.934 100.641 153.511 100.533 153.14 100.317C152.77 100.094 152.477 99.7872 152.262 99.3959C152.054 99.0047 151.949 98.5419 151.949 98.0089C151.949 97.4824 152.054 97.0232 152.262 96.632C152.471 96.2335 152.76 95.9269 153.13 95.7107C153.507 95.4879 153.941 95.3766 154.432 95.3766C154.916 95.3766 155.334 95.4879 155.683 95.7107C156.04 95.9269 156.313 96.2133 156.501 96.5712C156.69 96.9292 156.784 97.3139 156.784 97.7254C156.784 97.7999 156.781 97.8737 156.773 97.9481C156.773 98.0226 156.773 98.1065 156.773 98.2013H152.787C152.807 98.586 152.895 98.9063 153.049 99.1631C153.211 99.4125 153.41 99.602 153.645 99.73C153.887 99.858 154.143 99.9224 154.412 99.9224C154.762 99.9224 155.055 99.8414 155.29 99.6794C155.526 99.5174 155.697 99.2983 155.805 99.0213H156.642C156.508 99.487 156.249 99.8754 155.865 100.186C155.489 100.489 155.004 100.641 154.412 100.641ZM154.412 96.0954C154.008 96.0954 153.648 96.2205 153.332 96.47C153.022 96.713 152.844 97.071 152.797 97.5432H155.946C155.926 97.0912 155.771 96.7368 155.482 96.4801C155.192 96.2234 154.836 96.0954 154.412 96.0954ZM158.124 100.52V95.4981H158.891L158.941 96.3991C159.103 96.0817 159.335 95.8322 159.638 95.6499C159.94 95.4677 160.284 95.3766 160.667 95.3766C161.26 95.3766 161.731 95.5588 162.08 95.9233C162.437 96.2813 162.615 96.8345 162.615 97.5837V100.52H161.767V97.6748C161.767 96.6284 161.337 96.1055 160.475 96.1055C160.045 96.1055 159.685 96.2639 159.395 96.5814C159.113 96.8916 158.972 97.3371 158.972 97.9178V100.52H158.124ZM166.387 100.641C165.889 100.641 165.452 100.526 165.075 100.297C164.705 100.068 164.415 99.7539 164.207 99.3554C164.005 98.957 163.904 98.505 163.904 97.9988C163.904 97.4926 164.009 97.0435 164.217 96.6522C164.425 96.2538 164.715 95.9435 165.085 95.7208C165.455 95.4916 165.892 95.3766 166.397 95.3766C166.807 95.3766 167.171 95.4612 167.487 95.6297C167.804 95.7982 168.049 96.0347 168.224 96.3384V93.2302H169.072V100.52H168.305L168.224 99.6895C168.062 99.9325 167.83 100.152 167.528 100.348C167.225 100.544 166.845 100.641 166.387 100.641ZM166.478 99.9021C166.815 99.9021 167.11 99.8248 167.366 99.6693C167.628 99.5073 167.83 99.2845 167.972 99.0011C168.119 98.7176 168.194 98.3871 168.194 98.0089C168.194 97.6307 168.119 97.3002 167.972 97.0167C167.83 96.7332 167.628 96.5141 167.366 96.3586C167.11 96.1966 166.815 96.1157 166.478 96.1157C166.148 96.1157 165.852 96.1966 165.59 96.3586C165.334 96.5141 165.132 96.7332 164.984 97.0167C164.843 97.3002 164.772 97.6307 164.772 98.0089C164.772 98.3871 164.843 98.7176 164.984 99.0011C165.132 99.2845 165.334 99.5073 165.59 99.6693C165.852 99.8248 166.148 99.9021 166.478 99.9021ZM172.921 100.641C172.443 100.641 172.019 100.533 171.649 100.317C171.279 100.094 170.987 99.7872 170.771 99.3959C170.563 99.0047 170.458 98.5419 170.458 98.0089C170.458 97.4824 170.563 97.0232 170.771 96.632C170.979 96.2335 171.269 95.9269 171.639 95.7107C172.016 95.4879 172.45 95.3766 172.941 95.3766C173.425 95.3766 173.843 95.4879 174.193 95.7107C174.549 95.9269 174.822 96.2133 175.01 96.5712C175.198 96.9292 175.293 97.3139 175.293 97.7254C175.293 97.7999 175.289 97.8737 175.283 97.9481C175.283 98.0226 175.283 98.1065 175.283 98.2013H171.296C171.316 98.586 171.403 98.9063 171.558 99.1631C171.72 99.4125 171.918 99.602 172.154 99.73C172.396 99.858 172.652 99.9224 172.921 99.9224C173.27 99.9224 173.563 99.8414 173.799 99.6794C174.035 99.5174 174.206 99.2983 174.314 99.0213H175.151C175.017 99.487 174.758 99.8754 174.374 100.186C173.997 100.489 173.513 100.641 172.921 100.641ZM172.921 96.0954C172.517 96.0954 172.157 96.2205 171.841 96.47C171.532 96.713 171.353 97.071 171.306 97.5432H174.455C174.435 97.0912 174.28 96.7368 173.991 96.4801C173.702 96.2234 173.345 96.0954 172.921 96.0954ZM178.904 100.641C178.406 100.641 177.968 100.526 177.592 100.297C177.221 100.068 176.932 99.7539 176.724 99.3554C176.522 98.957 176.421 98.505 176.421 97.9988C176.421 97.4926 176.525 97.0435 176.734 96.6522C176.942 96.2538 177.231 95.9435 177.602 95.7208C177.972 95.4916 178.409 95.3766 178.914 95.3766C179.324 95.3766 179.687 95.4612 180.004 95.6297C180.32 95.7982 180.566 96.0347 180.741 96.3384V93.2302H181.589V100.52H180.822L180.741 99.6895C180.579 99.9325 180.347 100.152 180.044 100.348C179.742 100.544 179.361 100.641 178.904 100.641ZM178.995 99.9021C179.331 99.9021 179.627 99.8248 179.883 99.6693C180.145 99.5073 180.347 99.2845 180.488 99.0011C180.636 98.7176 180.71 98.3871 180.71 98.0089C180.71 97.6307 180.636 97.3002 180.488 97.0167C180.347 96.7332 180.145 96.5141 179.883 96.3586C179.627 96.1966 179.331 96.1157 178.995 96.1157C178.664 96.1157 178.369 96.1966 178.106 96.3586C177.851 96.5141 177.649 96.7332 177.501 97.0167C177.36 97.3002 177.289 97.6307 177.289 98.0089C177.289 98.3871 177.36 98.7176 177.501 99.0011C177.649 99.2845 177.851 99.5073 178.106 99.6693C178.369 99.8248 178.664 99.9021 178.995 99.9021Z" fill="#0FB2E3"/>
<path d="M278.279 86.0564H217.721C211.749 86.0564 206.907 90.913 206.907 96.9039C206.907 102.895 211.749 107.751 217.721 107.751H278.279C284.251 107.751 289.093 102.895 289.093 96.9039C289.093 90.913 284.251 86.0564 278.279 86.0564Z" fill="#9BE1F8"/>
<path d="M219.163 103.412C222.746 103.412 225.651 100.499 225.651 96.904C225.651 93.3094 222.746 90.3955 219.163 90.3955C215.579 90.3955 212.674 93.3094 212.674 96.904C212.674 100.499 215.579 103.412 219.163 103.412Z" fill="white"/>
<path d="M231.721 100.52L234.325 93.4327H235.224L237.818 100.52H236.919L236.273 98.6973H233.266L232.61 100.52H231.721ZM233.518 98.0089H236.021L234.77 94.5059L233.518 98.0089ZM239.034 100.52V93.2302H239.882V100.52H239.034ZM241.487 100.52V93.2302H242.335V100.52H241.487ZM246.222 100.641C245.751 100.641 245.328 100.533 244.95 100.317C244.573 100.101 244.274 99.7973 244.052 99.4061C243.837 99.0076 243.729 98.5419 243.729 98.0089C243.729 97.4759 243.84 97.0131 244.062 96.6219C244.284 96.2234 244.584 95.9168 244.961 95.7006C245.344 95.4843 245.772 95.3766 246.242 95.3766C246.713 95.3766 247.137 95.4843 247.514 95.7006C247.891 95.9168 248.187 96.2234 248.402 96.6219C248.624 97.0131 248.735 97.4759 248.735 98.0089C248.735 98.5419 248.624 99.0076 248.402 99.4061C248.18 99.7973 247.877 100.101 247.494 100.317C247.117 100.533 246.693 100.641 246.222 100.641ZM246.222 99.9123C246.511 99.9123 246.781 99.8414 247.03 99.6997C247.278 99.5579 247.48 99.3453 247.635 99.0618C247.79 98.7783 247.867 98.4276 247.867 98.0089C247.867 97.5902 247.79 97.2395 247.635 96.956C247.487 96.6725 247.288 96.4599 247.04 96.3181C246.791 96.1764 246.525 96.1055 246.242 96.1055C245.953 96.1055 245.684 96.1764 245.435 96.3181C245.186 96.4599 244.984 96.6725 244.829 96.956C244.674 97.2395 244.597 97.5902 244.597 98.0089C244.597 98.4276 244.674 98.7783 244.829 99.0618C244.984 99.3453 245.183 99.5579 245.425 99.6997C245.674 99.8414 245.94 99.9123 246.222 99.9123ZM252.432 100.641C251.954 100.641 251.523 100.533 251.14 100.317C250.763 100.095 250.463 99.7872 250.241 99.3959C250.026 98.9975 249.918 98.5354 249.918 98.0089C249.918 97.4824 250.026 97.0232 250.241 96.632C250.463 96.2335 250.763 95.9269 251.14 95.7107C251.523 95.4879 251.954 95.3766 252.432 95.3766C253.023 95.3766 253.522 95.5321 253.925 95.8423C254.336 96.1525 254.595 96.5676 254.703 97.0876H253.835C253.767 96.7773 253.602 96.5373 253.34 96.3688C253.078 96.193 252.771 96.1055 252.421 96.1055C252.139 96.1055 251.873 96.1764 251.624 96.3181C251.375 96.4599 251.174 96.6725 251.019 96.956C250.864 97.2395 250.786 97.5902 250.786 98.0089C250.786 98.4276 250.864 98.7783 251.019 99.0618C251.174 99.3453 251.375 99.5615 251.624 99.7098C251.873 99.8515 252.139 99.9224 252.421 99.9224C252.771 99.9224 253.078 99.8378 253.34 99.6693C253.602 99.4936 253.767 99.2477 253.835 98.9302H254.703C254.602 99.4364 254.346 99.8479 253.935 100.165C253.525 100.483 253.023 100.641 252.432 100.641ZM257.768 100.641C257.351 100.641 257.004 100.57 256.728 100.429C256.453 100.287 256.247 100.098 256.113 99.8616C255.979 99.6252 255.911 99.3692 255.911 99.0922C255.911 98.5795 256.106 98.1846 256.496 97.9077C256.887 97.6307 257.418 97.4926 258.091 97.4926H259.443V97.4318C259.443 96.9928 259.329 96.6624 259.1 96.4396C258.872 96.2104 258.565 96.0954 258.182 96.0954C257.852 96.0954 257.566 96.18 257.324 96.3485C257.089 96.5105 256.94 96.7499 256.88 97.0673H256.012C256.046 96.7029 256.167 96.3955 256.375 96.146C256.591 95.8965 256.857 95.7071 257.172 95.5791C257.489 95.4438 257.826 95.3766 258.182 95.3766C258.882 95.3766 259.407 95.5653 259.756 95.9435C260.113 96.3145 260.291 96.8106 260.291 97.4318V100.52H259.534L259.484 99.6187C259.342 99.9021 259.134 100.145 258.858 100.348C258.589 100.544 258.226 100.641 257.768 100.641ZM257.899 99.9224C258.222 99.9224 258.498 99.8378 258.727 99.6693C258.962 99.5008 259.141 99.2809 259.262 99.0112C259.383 98.7415 259.443 98.458 259.443 98.1608V98.1506H258.162C257.664 98.1506 257.311 98.2381 257.102 98.4139C256.9 98.5824 256.799 98.795 256.799 99.0517C256.799 99.3149 256.893 99.5275 257.082 99.6895C257.277 99.845 257.549 99.9224 257.899 99.9224ZM263.62 100.52C263.163 100.52 262.802 100.408 262.54 100.186C262.277 99.9629 262.146 99.5615 262.146 98.9808V96.2169H261.278V95.4981H262.146L262.257 94.2933H262.994V95.4981H264.468V96.2169H262.994V98.9808C262.994 99.2983 263.058 99.5138 263.186 99.6288C263.314 99.7365 263.539 99.7908 263.862 99.7908H264.387V100.52H263.62ZM267.874 100.641C267.396 100.641 266.972 100.533 266.602 100.317C266.232 100.095 265.94 99.7872 265.724 99.3959C265.516 99.0047 265.411 98.5419 265.411 98.0089C265.411 97.4824 265.516 97.0232 265.724 96.632C265.932 96.2335 266.222 95.9269 266.592 95.7107C266.969 95.4879 267.403 95.3766 267.894 95.3766C268.379 95.3766 268.796 95.4879 269.146 95.7107C269.502 95.9269 269.775 96.2133 269.963 96.5712C270.151 96.9292 270.246 97.3139 270.246 97.7254C270.246 97.7999 270.242 97.8737 270.236 97.9481C270.236 98.0226 270.236 98.1065 270.236 98.2013H266.249C266.269 98.586 266.356 98.9063 266.511 99.1631C266.673 99.4126 266.871 99.602 267.107 99.73C267.349 99.858 267.605 99.9224 267.874 99.9224C268.224 99.9224 268.516 99.8414 268.752 99.6794C268.988 99.5174 269.159 99.2983 269.267 99.0213H270.104C269.97 99.487 269.711 99.8754 269.327 100.186C268.95 100.489 268.466 100.641 267.874 100.641ZM267.874 96.0954C267.47 96.0954 267.11 96.2205 266.794 96.47C266.485 96.713 266.306 97.071 266.259 97.5432H269.408C269.388 97.0912 269.233 96.7369 268.944 96.4801C268.655 96.2234 268.298 96.0954 267.874 96.0954ZM273.857 100.641C273.359 100.641 272.921 100.526 272.545 100.297C272.174 100.068 271.885 99.7539 271.677 99.3554C271.475 98.957 271.374 98.505 271.374 97.9988C271.374 97.4926 271.478 97.0435 271.687 96.6522C271.895 96.2538 272.184 95.9435 272.555 95.7208C272.925 95.4916 273.362 95.3766 273.867 95.3766C274.277 95.3766 274.641 95.4612 274.957 95.6297C275.273 95.7982 275.519 96.0347 275.694 96.3384V93.2302H276.542V100.52H275.775L275.694 99.6895C275.532 99.9325 275.3 100.152 274.997 100.348C274.695 100.544 274.314 100.641 273.857 100.641ZM273.948 99.9021C274.284 99.9021 274.58 99.8248 274.836 99.6693C275.098 99.5073 275.3 99.2846 275.442 99.0011C275.589 98.7176 275.664 98.3871 275.664 98.0089C275.664 97.6307 275.589 97.3002 275.442 97.0167C275.3 96.7332 275.098 96.5141 274.836 96.3586C274.58 96.1966 274.284 96.1157 273.948 96.1157C273.618 96.1157 273.322 96.1966 273.06 96.3586C272.804 96.5141 272.602 96.7332 272.454 97.0167C272.313 97.3002 272.242 97.6307 272.242 98.0089C272.242 98.3871 272.313 98.7176 272.454 99.0011C272.602 99.2846 272.804 99.5073 273.06 99.6693C273.322 99.8248 273.618 99.9021 273.948 99.9021Z" fill="#0FB2E3"/>
</g>
<defs>
<clipPath id="clip0_250_520">
<rect width="341" height="128" fill="white"/>
</clipPath>
</defs>
</svg>
