<svg width="17" height="16" viewBox="0 0 17 16" fill="none" xmlns="http://www.w3.org/2000/svg">
<g clip-path="url(#clip0_245_2208)">
<path d="M8.61844 1.4375C4.99594 1.4375 2.0625 4.3775 2.0625 8C2.0625 11.6225 4.99594 14.5625 8.61844 14.5625C12.2475 14.5625 15.1875 11.6225 15.1875 8C15.1875 4.3775 12.2475 1.4375 8.61844 1.4375ZM8.625 13.25C5.72437 13.25 3.375 10.9006 3.375 8C3.375 5.09937 5.72437 2.75 8.625 2.75C11.5256 2.75 13.875 5.09937 13.875 8C13.875 10.9006 11.5256 13.25 8.625 13.25Z" fill="black"/>
<path d="M8.95312 4.71875H7.96875V8.65625L11.4141 10.7234L11.9062 9.91625L8.95312 8.16406V4.71875Z" fill="black"/>
</g>
<defs>
<clipPath id="clip0_245_2208">
<rect width="15.75" height="15.75" fill="white" transform="translate(0.75 0.125)"/>
</clipPath>
</defs>
</svg>
