<svg width="16" height="16" viewBox="0 0 16 16" fill="none" xmlns="http://www.w3.org/2000/svg">
<g clip-path="url(#clip0_245_2222)">
<path d="M8.11844 1.4375C4.49594 1.4375 1.5625 4.3775 1.5625 8C1.5625 11.6225 4.49594 14.5625 8.11844 14.5625C11.7475 14.5625 14.6875 11.6225 14.6875 8C14.6875 4.3775 11.7475 1.4375 8.11844 1.4375ZM8.125 13.25C5.22437 13.25 2.875 10.9006 2.875 8C2.875 5.09937 5.22437 2.75 8.125 2.75C11.0256 2.75 13.375 5.09937 13.375 8C13.375 10.9006 11.0256 13.25 8.125 13.25Z" fill="black"/>
<path d="M8.45312 4.71875H7.46875V8.65625L10.9141 10.7234L11.4062 9.91625L8.45312 8.16406V4.71875Z" fill="black"/>
</g>
<defs>
<clipPath id="clip0_245_2222">
<rect width="15.75" height="15.75" fill="white" transform="translate(0.25 0.125)"/>
</clipPath>
</defs>
</svg>
