<svg width="90" height="118" viewBox="0 0 90 118" fill="none" xmlns="http://www.w3.org/2000/svg">
<path fill-rule="evenodd" clip-rule="evenodd" d="M89.052 3C89.052 4.65685 88.0065 6 86.7168 6C85.427 6 84.3815 4.65685 84.3815 3C84.3815 1.34315 85.427 0 86.7168 0C88.0065 0 89.052 1.34315 89.052 3ZM86.7168 22C88.0065 22 89.052 20.6569 89.052 19C89.052 17.3431 88.0065 16 86.7168 16C85.427 16 84.3815 17.3431 84.3815 19C84.3815 20.6569 85.427 22 86.7168 22ZM89.052 35C89.052 36.6569 88.0065 38 86.7168 38C85.427 38 84.3815 36.6569 84.3815 35C84.3815 33.3431 85.427 32 86.7168 32C88.0065 32 89.052 33.3431 89.052 35ZM86.7168 54C88.0065 54 89.052 52.6569 89.052 51C89.052 49.3431 88.0065 48 86.7168 48C85.427 48 84.3815 49.3431 84.3815 51C84.3815 52.6569 85.427 54 86.7168 54ZM89.052 67C89.052 68.6569 88.0065 70 86.7168 70C85.427 70 84.3815 68.6569 84.3815 67C84.3815 65.3431 85.427 64 86.7168 64C88.0065 64 89.052 65.3431 89.052 67ZM86.7168 86C88.0065 86 89.052 84.6569 89.052 83C89.052 81.3431 88.0065 80 86.7168 80C85.427 80 84.3815 81.3431 84.3815 83C84.3815 84.6569 85.427 86 86.7168 86ZM89.052 99C89.052 100.657 88.0065 102 86.7168 102C85.427 102 84.3815 100.657 84.3815 99C84.3815 97.3431 85.427 96 86.7168 96C88.0065 96 89.052 97.3431 89.052 99ZM2.64739 118C3.93712 118 4.98265 116.657 4.98265 115C4.98265 113.343 3.93712 112 2.64739 112C1.35767 112 0.312134 113.343 0.312134 115C0.312134 116.657 1.35767 118 2.64739 118ZM18.9942 115C18.9942 116.657 17.9487 118 16.659 118C15.3692 118 14.3237 116.657 14.3237 115C14.3237 113.343 15.3692 112 16.659 112C17.9487 112 18.9942 113.343 18.9942 115ZM30.6705 118C31.9602 118 33.0058 116.657 33.0058 115C33.0058 113.343 31.9602 112 30.6705 112C29.3808 112 28.3353 113.343 28.3353 115C28.3353 116.657 29.3808 118 30.6705 118ZM47.0173 115C47.0173 116.657 45.9718 118 44.6821 118C43.3923 118 42.3468 116.657 42.3468 115C42.3468 113.343 43.3923 112 44.6821 112C45.9718 112 47.0173 113.343 47.0173 115ZM58.6936 118C59.9834 118 61.0289 116.657 61.0289 115C61.0289 113.343 59.9834 112 58.6936 112C57.4039 112 56.3584 113.343 56.3584 115C56.3584 116.657 57.4039 118 58.6936 118ZM75.0405 115C75.0405 116.657 73.9949 118 72.7052 118C71.4155 118 70.3699 116.657 70.3699 115C70.3699 113.343 71.4155 112 72.7052 112C73.9949 112 75.0405 113.343 75.0405 115ZM89.052 115C89.052 116.657 88.0065 118 86.7168 118C85.427 118 84.3815 116.657 84.3815 115C84.3815 113.343 85.427 112 86.7168 112C88.0065 112 89.052 113.343 89.052 115ZM72.7052 102C73.9949 102 75.0405 100.657 75.0405 99C75.0405 97.3431 73.9949 96 72.7052 96C71.4155 96 70.3699 97.3431 70.3699 99C70.3699 100.657 71.4155 102 72.7052 102ZM61.0289 99C61.0289 100.657 59.9834 102 58.6936 102C57.4039 102 56.3584 100.657 56.3584 99C56.3584 97.3431 57.4039 96 58.6936 96C59.9834 96 61.0289 97.3431 61.0289 99ZM44.6821 102C45.9718 102 47.0173 100.657 47.0173 99C47.0173 97.3431 45.9718 96 44.6821 96C43.3923 96 42.3468 97.3431 42.3468 99C42.3468 100.657 43.3923 102 44.6821 102ZM33.0058 99C33.0058 100.657 31.9602 102 30.6705 102C29.3808 102 28.3353 100.657 28.3353 99C28.3353 97.3431 29.3808 96 30.6705 96C31.9602 96 33.0058 97.3431 33.0058 99ZM16.659 102C17.9487 102 18.9942 100.657 18.9942 99C18.9942 97.3431 17.9487 96 16.659 96C15.3692 96 14.3237 97.3431 14.3237 99C14.3237 100.657 15.3692 102 16.659 102ZM4.98265 99C4.98265 100.657 3.93712 102 2.64739 102C1.35767 102 0.312134 100.657 0.312134 99C0.312134 97.3431 1.35767 96 2.64739 96C3.93712 96 4.98265 97.3431 4.98265 99ZM75.0405 83C75.0405 84.6569 73.9949 86 72.7052 86C71.4155 86 70.3699 84.6569 70.3699 83C70.3699 81.3431 71.4155 80 72.7052 80C73.9949 80 75.0405 81.3431 75.0405 83ZM58.6936 86C59.9834 86 61.0289 84.6569 61.0289 83C61.0289 81.3431 59.9834 80 58.6936 80C57.4039 80 56.3584 81.3431 56.3584 83C56.3584 84.6569 57.4039 86 58.6936 86ZM47.0173 83C47.0173 84.6569 45.9718 86 44.6821 86C43.3923 86 42.3468 84.6569 42.3468 83C42.3468 81.3431 43.3923 80 44.6821 80C45.9718 80 47.0173 81.3431 47.0173 83ZM30.6705 86C31.9602 86 33.0058 84.6569 33.0058 83C33.0058 81.3431 31.9602 80 30.6705 80C29.3808 80 28.3353 81.3431 28.3353 83C28.3353 84.6569 29.3808 86 30.6705 86ZM18.9942 83C18.9942 84.6569 17.9487 86 16.659 86C15.3692 86 14.3237 84.6569 14.3237 83C14.3237 81.3431 15.3692 80 16.659 80C17.9487 80 18.9942 81.3431 18.9942 83ZM2.64739 86C3.93712 86 4.98265 84.6569 4.98265 83C4.98265 81.3431 3.93712 80 2.64739 80C1.35767 80 0.312134 81.3431 0.312134 83C0.312134 84.6569 1.35767 86 2.64739 86ZM72.7052 70C73.9949 70 75.0405 68.6569 75.0405 67C75.0405 65.3431 73.9949 64 72.7052 64C71.4155 64 70.3699 65.3431 70.3699 67C70.3699 68.6569 71.4155 70 72.7052 70ZM61.0289 67C61.0289 68.6569 59.9834 70 58.6936 70C57.4039 70 56.3584 68.6569 56.3584 67C56.3584 65.3431 57.4039 64 58.6936 64C59.9834 64 61.0289 65.3431 61.0289 67ZM44.6821 70C45.9718 70 47.0173 68.6569 47.0173 67C47.0173 65.3431 45.9718 64 44.6821 64C43.3923 64 42.3468 65.3431 42.3468 67C42.3468 68.6569 43.3923 70 44.6821 70ZM33.0058 67C33.0058 68.6569 31.9602 70 30.6705 70C29.3808 70 28.3353 68.6569 28.3353 67C28.3353 65.3431 29.3808 64 30.6705 64C31.9602 64 33.0058 65.3431 33.0058 67ZM16.659 70C17.9487 70 18.9942 68.6569 18.9942 67C18.9942 65.3431 17.9487 64 16.659 64C15.3692 64 14.3237 65.3431 14.3237 67C14.3237 68.6569 15.3692 70 16.659 70ZM4.98265 67C4.98265 68.6569 3.93712 70 2.64739 70C1.35767 70 0.312134 68.6569 0.312134 67C0.312134 65.3431 1.35767 64 2.64739 64C3.93712 64 4.98265 65.3431 4.98265 67ZM75.0405 51C75.0405 52.6569 73.9949 54 72.7052 54C71.4155 54 70.3699 52.6569 70.3699 51C70.3699 49.3431 71.4155 48 72.7052 48C73.9949 48 75.0405 49.3431 75.0405 51ZM58.6936 54C59.9834 54 61.0289 52.6569 61.0289 51C61.0289 49.3431 59.9834 48 58.6936 48C57.4039 48 56.3584 49.3431 56.3584 51C56.3584 52.6569 57.4039 54 58.6936 54ZM47.0173 51C47.0173 52.6569 45.9718 54 44.6821 54C43.3923 54 42.3468 52.6569 42.3468 51C42.3468 49.3431 43.3923 48 44.6821 48C45.9718 48 47.0173 49.3431 47.0173 51ZM30.6705 54C31.9602 54 33.0058 52.6569 33.0058 51C33.0058 49.3431 31.9602 48 30.6705 48C29.3808 48 28.3353 49.3431 28.3353 51C28.3353 52.6569 29.3808 54 30.6705 54ZM18.9942 51C18.9942 52.6569 17.9487 54 16.659 54C15.3692 54 14.3237 52.6569 14.3237 51C14.3237 49.3431 15.3692 48 16.659 48C17.9487 48 18.9942 49.3431 18.9942 51ZM2.64739 54C3.93712 54 4.98265 52.6569 4.98265 51C4.98265 49.3431 3.93712 48 2.64739 48C1.35767 48 0.312134 49.3431 0.312134 51C0.312134 52.6569 1.35767 54 2.64739 54ZM72.7052 38C73.9949 38 75.0405 36.6569 75.0405 35C75.0405 33.3431 73.9949 32 72.7052 32C71.4155 32 70.3699 33.3431 70.3699 35C70.3699 36.6569 71.4155 38 72.7052 38ZM61.0289 35C61.0289 36.6569 59.9834 38 58.6936 38C57.4039 38 56.3584 36.6569 56.3584 35C56.3584 33.3431 57.4039 32 58.6936 32C59.9834 32 61.0289 33.3431 61.0289 35ZM44.6821 38C45.9718 38 47.0173 36.6569 47.0173 35C47.0173 33.3431 45.9718 32 44.6821 32C43.3923 32 42.3468 33.3431 42.3468 35C42.3468 36.6569 43.3923 38 44.6821 38ZM33.0058 35C33.0058 36.6569 31.9602 38 30.6705 38C29.3808 38 28.3353 36.6569 28.3353 35C28.3353 33.3431 29.3808 32 30.6705 32C31.9602 32 33.0058 33.3431 33.0058 35ZM16.659 38C17.9487 38 18.9942 36.6569 18.9942 35C18.9942 33.3431 17.9487 32 16.659 32C15.3692 32 14.3237 33.3431 14.3237 35C14.3237 36.6569 15.3692 38 16.659 38ZM4.98265 35C4.98265 36.6569 3.93712 38 2.64739 38C1.35767 38 0.312134 36.6569 0.312134 35C0.312134 33.3431 1.35767 32 2.64739 32C3.93712 32 4.98265 33.3431 4.98265 35ZM75.0405 19C75.0405 20.6569 73.9949 22 72.7052 22C71.4155 22 70.3699 20.6569 70.3699 19C70.3699 17.3431 71.4155 16 72.7052 16C73.9949 16 75.0405 17.3431 75.0405 19ZM58.6936 22C59.9834 22 61.0289 20.6569 61.0289 19C61.0289 17.3431 59.9834 16 58.6936 16C57.4039 16 56.3584 17.3431 56.3584 19C56.3584 20.6569 57.4039 22 58.6936 22ZM47.0173 19C47.0173 20.6569 45.9718 22 44.6821 22C43.3923 22 42.3468 20.6569 42.3468 19C42.3468 17.3431 43.3923 16 44.6821 16C45.9718 16 47.0173 17.3431 47.0173 19ZM30.6705 22C31.9602 22 33.0058 20.6569 33.0058 19C33.0058 17.3431 31.9602 16 30.6705 16C29.3808 16 28.3353 17.3431 28.3353 19C28.3353 20.6569 29.3808 22 30.6705 22ZM18.9942 19C18.9942 20.6569 17.9487 22 16.659 22C15.3692 22 14.3237 20.6569 14.3237 19C14.3237 17.3431 15.3692 16 16.659 16C17.9487 16 18.9942 17.3431 18.9942 19ZM2.64739 22C3.93712 22 4.98265 20.6569 4.98265 19C4.98265 17.3431 3.93712 16 2.64739 16C1.35767 16 0.312134 17.3431 0.312134 19C0.312134 20.6569 1.35767 22 2.64739 22ZM72.7052 6C73.9949 6 75.0405 4.65685 75.0405 3C75.0405 1.34315 73.9949 0 72.7052 0C71.4155 0 70.3699 1.34315 70.3699 3C70.3699 4.65685 71.4155 6 72.7052 6ZM61.0289 3C61.0289 4.65685 59.9834 6 58.6936 6C57.4039 6 56.3584 4.65685 56.3584 3C56.3584 1.34315 57.4039 0 58.6936 0C59.9834 0 61.0289 1.34315 61.0289 3ZM44.6821 6C45.9718 6 47.0173 4.65685 47.0173 3C47.0173 1.34315 45.9718 0 44.6821 0C43.3923 0 42.3468 1.34315 42.3468 3C42.3468 4.65685 43.3923 6 44.6821 6ZM33.0058 3C33.0058 4.65685 31.9602 6 30.6705 6C29.3808 6 28.3353 4.65685 28.3353 3C28.3353 1.34315 29.3808 0 30.6705 0C31.9602 0 33.0058 1.34315 33.0058 3ZM16.659 6C17.9487 6 18.9942 4.65685 18.9942 3C18.9942 1.34315 17.9487 0 16.659 0C15.3692 0 14.3237 1.34315 14.3237 3C14.3237 4.65685 15.3692 6 16.659 6ZM4.98265 3C4.98265 4.65685 3.93712 6 2.64739 6C1.35767 6 0.312134 4.65685 0.312134 3C0.312134 1.34315 1.35767 0 2.64739 0C3.93712 0 4.98265 1.34315 4.98265 3Z" fill="#005490" fill-opacity="0.21"/>
</svg>
