<svg width="40" height="27" viewBox="0 0 40 27" fill="none" xmlns="http://www.w3.org/2000/svg">
<path d="M32.875 11.3125C32 4.8125 26.5 0 19.875 0C14.1875 0 9.25 3.5625 7.4375 8.9375C3.375 9.8125 0.5 13.3125 0.5 17.5C0.5 22.0625 4.0625 25.875 8.625 26.25H32.375H32.4375C36.25 25.875 39.25 22.625 39.25 18.75C39.25 15.0625 36.5 11.875 32.875 11.3125ZM26.5625 14.8125C26.4375 14.9375 26.3125 15 26.125 15C25.9375 15 25.8125 14.9375 25.6875 14.8125L20.5 9.625V21.875C20.5 22.25 20.25 22.5 19.875 22.5C19.5 22.5 19.25 22.25 19.25 21.875V9.625L14.0625 14.8125C13.8125 15.0625 13.4375 15.0625 13.1875 14.8125C12.9375 14.5625 12.9375 14.1875 13.1875 13.9375L19.4375 7.6875C19.5 7.625 19.5625 7.5625 19.625 7.5625C19.75 7.5 19.9375 7.5 20.125 7.5625C20.1875 7.625 20.25 7.625 20.3125 7.6875L26.5625 13.9375C26.8125 14.1875 26.8125 14.5625 26.5625 14.8125Z" fill="#B3BCCC"/>
</svg>
